<svg width="57" height="60" viewBox="0 0 57 60" fill="none" xmlns="http://www.w3.org/2000/svg">
<path d="M28.5 14.0789V15.9822" stroke="black" stroke-width="2" stroke-miterlimit="10" stroke-linecap="round" stroke-linejoin="round"/>
<path d="M28.5 52.345V54.2483" stroke="black" stroke-width="2" stroke-miterlimit="10" stroke-linecap="round" stroke-linejoin="round"/>
<path d="M50.6562 34.1636H48.5566" stroke="black" stroke-width="2" stroke-miterlimit="10" stroke-linecap="round" stroke-linejoin="round"/>
<path d="M8.44527 34.1636H6.3457" stroke="black" stroke-width="2" stroke-miterlimit="10" stroke-linecap="round" stroke-linejoin="round"/>
<path d="M17.4238 16.7698L18.4737 18.4182" stroke="black" stroke-width="2" stroke-miterlimit="10" stroke-linecap="round" stroke-linejoin="round"/>
<path d="M38.5293 49.9092L39.5792 51.5576" stroke="black" stroke-width="2" stroke-miterlimit="10" stroke-linecap="round" stroke-linejoin="round"/>
<path d="M47.6873 24.1213L45.8691 25.073" stroke="black" stroke-width="2" stroke-miterlimit="10" stroke-linecap="round" stroke-linejoin="round"/>
<path d="M11.1326 43.2542L9.31445 44.2059" stroke="black" stroke-width="2" stroke-miterlimit="10" stroke-linecap="round" stroke-linejoin="round"/>
<path d="M9.31445 24.1213L11.1326 25.073" stroke="black" stroke-width="2" stroke-miterlimit="10" stroke-linecap="round" stroke-linejoin="round"/>
<path d="M45.8691 43.2542L47.6873 44.2059" stroke="black" stroke-width="2" stroke-miterlimit="10" stroke-linecap="round" stroke-linejoin="round"/>
<path d="M39.5792 16.7698L38.5293 18.4182" stroke="black" stroke-width="2" stroke-miterlimit="10" stroke-linecap="round" stroke-linejoin="round"/>
<path d="M18.4737 49.9092L17.4238 51.5576" stroke="black" stroke-width="2" stroke-miterlimit="10" stroke-linecap="round" stroke-linejoin="round"/>
<path d="M52.0263 12.9017L47.2127 9.21968C46.6781 8.8107 45.8789 8.87206 45.4276 9.35685L44.7997 10.0314C44.3486 10.516 44.4163 11.2406 44.9511 11.6496L45.9169 12.3883L44.0137 14.4331L46.8957 16.6377L48.799 14.5929L49.7648 15.3317C50.2996 15.7407 51.0987 15.6793 51.55 15.1945L52.1778 14.52C52.6287 14.0352 52.561 13.3107 52.0263 12.9017Z" fill="black"/>
<path d="M12.0466 11.65C12.5813 11.241 12.649 10.5165 12.1979 10.0318L11.57 9.3573C11.1189 8.87263 10.3197 8.81115 9.78488 9.22013L4.97136 12.9021C4.43673 13.3111 4.36891 14.0357 4.82006 14.5203L5.44789 15.1948C5.89904 15.6795 6.69828 15.741 7.23306 15.332L8.19901 14.5931L10.1021 16.6378L12.9841 14.4332L11.081 12.3885L12.0466 11.65Z" fill="black"/>
<path d="M31.6489 0H25.3507C24.6511 0 24.084 0.514215 24.084 1.14837V6.09879C24.084 6.73308 24.6512 7.24717 25.3507 7.24717H26.6143V9.92272H30.3852V7.24717H31.6488C32.3484 7.24717 32.9155 6.73308 32.9155 6.09879V1.14837C32.9158 0.514089 32.3486 0 31.6489 0Z" fill="black"/>
<path d="M28.5 11.2186C35.2607 11.2186 41.6165 13.6052 46.397 17.939C51.1775 22.2727 53.8102 28.0347 53.8102 34.1634C53.8102 40.2921 51.1775 46.0541 46.397 50.3878C41.6165 54.7216 35.2607 57.1082 28.5 57.1082C21.7395 57.1082 15.3835 54.7216 10.603 50.3878C5.82246 46.0541 3.18978 40.2921 3.18978 34.1634C3.18978 28.0346 5.82246 22.2727 10.603 17.939C15.3835 13.6053 21.7393 11.2186 28.5 11.2186ZM28.5 8.3269C12.7598 8.3269 0 19.8942 0 34.1634C0 48.4326 12.76 59.9999 28.5 59.9999C44.24 59.9999 57 48.4326 57 34.1634C57 19.8942 44.2402 8.3269 28.5 8.3269Z" fill="black"/>
</svg>
